<mxfile host="app.diagrams.net" modified="2023-12-26T03:03:22.002Z" agent="Mozilla/5.0 (Windows NT 10.0; Win64; x64) AppleWebKit/537.36 (KHTML, like Gecko) Chrome/120.0.0.0 Safari/537.36" etag="94Q43UBtOxQXTBtnEHKA" version="22.1.11" type="device">
  <diagram name="Page-1" id="1W7PdpJe6HvkkKKPKDTk">
    <mxGraphModel dx="1843" dy="746" grid="1" gridSize="10" guides="1" tooltips="1" connect="1" arrows="1" fold="1" page="1" pageScale="1" pageWidth="850" pageHeight="1100" math="0" shadow="0">
      <root>
        <mxCell id="0" />
        <mxCell id="1" parent="0" />
        <mxCell id="44XMPQr_eO4UHeasSoO8-1" value="" style="whiteSpace=wrap;html=1;aspect=fixed;" vertex="1" parent="1">
          <mxGeometry x="40" y="80" width="760" height="760" as="geometry" />
        </mxCell>
        <mxCell id="44XMPQr_eO4UHeasSoO8-3" value="" style="endArrow=none;html=1;rounded=0;exitX=-0.003;exitY=0.106;exitDx=0;exitDy=0;exitPerimeter=0;entryX=1;entryY=0.105;entryDx=0;entryDy=0;entryPerimeter=0;" edge="1" parent="1" source="44XMPQr_eO4UHeasSoO8-1" target="44XMPQr_eO4UHeasSoO8-1">
          <mxGeometry width="50" height="50" relative="1" as="geometry">
            <mxPoint x="490" y="510" as="sourcePoint" />
            <mxPoint x="540" y="460" as="targetPoint" />
          </mxGeometry>
        </mxCell>
        <mxCell id="44XMPQr_eO4UHeasSoO8-4" value="" style="endArrow=none;html=1;rounded=0;exitX=0.152;exitY=1.004;exitDx=0;exitDy=0;exitPerimeter=0;" edge="1" parent="1">
          <mxGeometry width="50" height="50" relative="1" as="geometry">
            <mxPoint x="199.99999999999997" y="843.04" as="sourcePoint" />
            <mxPoint x="204.48" y="160" as="targetPoint" />
          </mxGeometry>
        </mxCell>
        <mxCell id="44XMPQr_eO4UHeasSoO8-7" value="" style="endArrow=none;html=1;rounded=0;entryX=0.224;entryY=0;entryDx=0;entryDy=0;entryPerimeter=0;" edge="1" parent="1">
          <mxGeometry width="50" height="50" relative="1" as="geometry">
            <mxPoint x="205" y="160" as="sourcePoint" />
            <mxPoint x="205.23999999999978" y="80" as="targetPoint" />
          </mxGeometry>
        </mxCell>
        <mxCell id="44XMPQr_eO4UHeasSoO8-8" value="&lt;b&gt;&lt;font style=&quot;font-size: 36px;&quot;&gt;LOGO&lt;/font&gt;&lt;/b&gt;" style="text;html=1;strokeColor=none;fillColor=none;align=center;verticalAlign=middle;whiteSpace=wrap;rounded=0;" vertex="1" parent="1">
          <mxGeometry x="70" y="100" width="120" height="50" as="geometry" />
        </mxCell>
        <mxCell id="44XMPQr_eO4UHeasSoO8-9" value="&lt;b&gt;&lt;font style=&quot;font-size: 18px;&quot;&gt;Hi thongle&lt;/font&gt;&lt;/b&gt;" style="text;html=1;strokeColor=none;fillColor=none;align=center;verticalAlign=middle;whiteSpace=wrap;rounded=0;" vertex="1" parent="1">
          <mxGeometry x="670" y="90" width="130" height="60" as="geometry" />
        </mxCell>
        <mxCell id="44XMPQr_eO4UHeasSoO8-10" value="&lt;font style=&quot;font-size: 18px;&quot;&gt;Dashboard&lt;/font&gt;" style="text;html=1;strokeColor=none;fillColor=none;align=center;verticalAlign=middle;whiteSpace=wrap;rounded=0;" vertex="1" parent="1">
          <mxGeometry x="61" y="170" width="130" height="30" as="geometry" />
        </mxCell>
        <mxCell id="44XMPQr_eO4UHeasSoO8-11" value="" style="endArrow=none;html=1;rounded=0;" edge="1" parent="1">
          <mxGeometry width="50" height="50" relative="1" as="geometry">
            <mxPoint x="40" y="210" as="sourcePoint" />
            <mxPoint x="200" y="210" as="targetPoint" />
            <Array as="points" />
          </mxGeometry>
        </mxCell>
        <mxCell id="44XMPQr_eO4UHeasSoO8-13" value="&lt;font style=&quot;font-size: 18px;&quot;&gt;User Setting&lt;/font&gt;" style="text;html=1;strokeColor=none;fillColor=none;align=center;verticalAlign=middle;whiteSpace=wrap;rounded=0;" vertex="1" parent="1">
          <mxGeometry x="50" y="780" width="140" height="30" as="geometry" />
        </mxCell>
        <mxCell id="44XMPQr_eO4UHeasSoO8-15" value="&lt;font style=&quot;font-size: 15px;&quot;&gt;Task Management&lt;/font&gt;" style="text;html=1;strokeColor=none;fillColor=none;align=center;verticalAlign=middle;whiteSpace=wrap;rounded=0;" vertex="1" parent="1">
          <mxGeometry x="59" y="220" width="130" height="30" as="geometry" />
        </mxCell>
        <mxCell id="44XMPQr_eO4UHeasSoO8-18" value="" style="verticalLabelPosition=bottom;verticalAlign=top;html=1;shape=mxgraph.basic.smiley" vertex="1" parent="1">
          <mxGeometry x="56" y="175" width="20" height="20" as="geometry" />
        </mxCell>
        <mxCell id="44XMPQr_eO4UHeasSoO8-20" value="" style="verticalLabelPosition=bottom;verticalAlign=top;html=1;shape=mxgraph.basic.smiley" vertex="1" parent="1">
          <mxGeometry x="39" y="224" width="20" height="20" as="geometry" />
        </mxCell>
        <mxCell id="44XMPQr_eO4UHeasSoO8-23" value="" style="endArrow=none;html=1;rounded=0;" edge="1" parent="1">
          <mxGeometry width="50" height="50" relative="1" as="geometry">
            <mxPoint x="40" y="320" as="sourcePoint" />
            <mxPoint x="200" y="320" as="targetPoint" />
            <Array as="points" />
          </mxGeometry>
        </mxCell>
        <mxCell id="44XMPQr_eO4UHeasSoO8-24" value="&lt;font style=&quot;font-size: 15px;&quot;&gt;Active&lt;/font&gt;" style="text;html=1;strokeColor=none;fillColor=none;align=center;verticalAlign=middle;whiteSpace=wrap;rounded=0;" vertex="1" parent="1">
          <mxGeometry x="59" y="244" width="130" height="30" as="geometry" />
        </mxCell>
        <mxCell id="44XMPQr_eO4UHeasSoO8-25" value="&lt;font style=&quot;font-size: 15px;&quot;&gt;&lt;b&gt;Backlog&lt;/b&gt;&lt;/font&gt;" style="text;html=1;strokeColor=none;fillColor=none;align=center;verticalAlign=middle;whiteSpace=wrap;rounded=0;" vertex="1" parent="1">
          <mxGeometry x="65" y="274" width="130" height="30" as="geometry" />
        </mxCell>
        <mxCell id="44XMPQr_eO4UHeasSoO8-26" value="" style="endArrow=none;dashed=1;html=1;rounded=0;entryX=0;entryY=0.25;entryDx=0;entryDy=0;" edge="1" parent="1" target="44XMPQr_eO4UHeasSoO8-1">
          <mxGeometry width="50" height="50" relative="1" as="geometry">
            <mxPoint x="200" y="270" as="sourcePoint" />
            <mxPoint x="75" y="274" as="targetPoint" />
          </mxGeometry>
        </mxCell>
        <mxCell id="44XMPQr_eO4UHeasSoO8-27" value="" style="shape=actor;whiteSpace=wrap;html=1;" vertex="1" parent="1">
          <mxGeometry x="88" y="243" width="10" height="20" as="geometry" />
        </mxCell>
        <mxCell id="44XMPQr_eO4UHeasSoO8-28" value="" style="shape=actor;whiteSpace=wrap;html=1;" vertex="1" parent="1">
          <mxGeometry x="85" y="277" width="10" height="20" as="geometry" />
        </mxCell>
        <mxCell id="44XMPQr_eO4UHeasSoO8-29" value="&lt;font style=&quot;font-size: 15px;&quot;&gt;Event Management&lt;/font&gt;" style="text;html=1;strokeColor=none;fillColor=none;align=center;verticalAlign=middle;whiteSpace=wrap;rounded=0;" vertex="1" parent="1">
          <mxGeometry x="56" y="330" width="134" height="30" as="geometry" />
        </mxCell>
        <mxCell id="44XMPQr_eO4UHeasSoO8-30" value="" style="verticalLabelPosition=bottom;verticalAlign=top;html=1;shape=mxgraph.basic.smiley" vertex="1" parent="1">
          <mxGeometry x="35" y="335" width="20" height="20" as="geometry" />
        </mxCell>
        <mxCell id="44XMPQr_eO4UHeasSoO8-31" value="&lt;font style=&quot;font-size: 15px;&quot;&gt;Meeting Note&lt;/font&gt;" style="text;html=1;strokeColor=none;fillColor=none;align=center;verticalAlign=middle;whiteSpace=wrap;rounded=0;" vertex="1" parent="1">
          <mxGeometry x="76" y="355" width="130" height="30" as="geometry" />
        </mxCell>
        <mxCell id="44XMPQr_eO4UHeasSoO8-32" value="" style="shape=actor;whiteSpace=wrap;html=1;" vertex="1" parent="1">
          <mxGeometry x="78" y="355" width="10" height="20" as="geometry" />
        </mxCell>
        <mxCell id="44XMPQr_eO4UHeasSoO8-34" value="" style="endArrow=none;html=1;rounded=0;" edge="1" parent="1">
          <mxGeometry width="50" height="50" relative="1" as="geometry">
            <mxPoint x="40" y="760" as="sourcePoint" />
            <mxPoint x="200" y="760" as="targetPoint" />
            <Array as="points" />
          </mxGeometry>
        </mxCell>
        <mxCell id="44XMPQr_eO4UHeasSoO8-35" value="" style="endArrow=none;html=1;rounded=0;" edge="1" parent="1">
          <mxGeometry width="50" height="50" relative="1" as="geometry">
            <mxPoint x="206" y="210" as="sourcePoint" />
            <mxPoint x="800" y="210" as="targetPoint" />
          </mxGeometry>
        </mxCell>
        <mxCell id="44XMPQr_eO4UHeasSoO8-36" value="&lt;font style=&quot;font-size: 18px;&quot;&gt;Backlog Tasks&lt;/font&gt;" style="text;html=1;strokeColor=none;fillColor=none;align=center;verticalAlign=middle;whiteSpace=wrap;rounded=0;" vertex="1" parent="1">
          <mxGeometry x="203" y="175" width="130" height="30" as="geometry" />
        </mxCell>
        <mxCell id="44XMPQr_eO4UHeasSoO8-58" value="&lt;font style=&quot;font-size: 18px;&quot;&gt;Active task&lt;/font&gt;" style="text;html=1;strokeColor=none;fillColor=none;align=center;verticalAlign=middle;whiteSpace=wrap;rounded=0;" vertex="1" parent="1">
          <mxGeometry x="203" y="214" width="130" height="30" as="geometry" />
        </mxCell>
        <mxCell id="44XMPQr_eO4UHeasSoO8-60" value="" style="rounded=0;whiteSpace=wrap;html=1;" vertex="1" parent="1">
          <mxGeometry x="206" y="250" width="594" height="170" as="geometry" />
        </mxCell>
        <mxCell id="44XMPQr_eO4UHeasSoO8-61" value="&lt;font style=&quot;font-size: 18px;&quot;&gt;Backlog&lt;/font&gt;" style="text;html=1;strokeColor=none;fillColor=none;align=center;verticalAlign=middle;whiteSpace=wrap;rounded=0;" vertex="1" parent="1">
          <mxGeometry x="203" y="430" width="130" height="30" as="geometry" />
        </mxCell>
        <mxCell id="44XMPQr_eO4UHeasSoO8-62" value="" style="rounded=0;whiteSpace=wrap;html=1;" vertex="1" parent="1">
          <mxGeometry x="206" y="460" width="594" height="170" as="geometry" />
        </mxCell>
        <mxCell id="44XMPQr_eO4UHeasSoO8-64" value="" style="endArrow=none;dashed=1;html=1;dashPattern=1 3;strokeWidth=2;rounded=0;entryX=0;entryY=0.25;entryDx=0;entryDy=0;exitX=1;exitY=0.25;exitDx=0;exitDy=0;" edge="1" parent="1">
          <mxGeometry width="50" height="50" relative="1" as="geometry">
            <mxPoint x="800" y="274.5" as="sourcePoint" />
            <mxPoint x="206" y="274.5" as="targetPoint" />
          </mxGeometry>
        </mxCell>
        <mxCell id="44XMPQr_eO4UHeasSoO8-65" value="" style="endArrow=none;dashed=1;html=1;dashPattern=1 3;strokeWidth=2;rounded=0;entryX=0;entryY=0.25;entryDx=0;entryDy=0;exitX=1;exitY=0.25;exitDx=0;exitDy=0;" edge="1" parent="1">
          <mxGeometry width="50" height="50" relative="1" as="geometry">
            <mxPoint x="801" y="303" as="sourcePoint" />
            <mxPoint x="207" y="303" as="targetPoint" />
          </mxGeometry>
        </mxCell>
        <mxCell id="44XMPQr_eO4UHeasSoO8-66" value="" style="endArrow=none;dashed=1;html=1;dashPattern=1 3;strokeWidth=2;rounded=0;entryX=0;entryY=0.25;entryDx=0;entryDy=0;exitX=1;exitY=0.25;exitDx=0;exitDy=0;" edge="1" parent="1">
          <mxGeometry width="50" height="50" relative="1" as="geometry">
            <mxPoint x="797" y="520" as="sourcePoint" />
            <mxPoint x="203" y="520" as="targetPoint" />
          </mxGeometry>
        </mxCell>
        <mxCell id="44XMPQr_eO4UHeasSoO8-70" value="" style="endArrow=none;dashed=1;html=1;dashPattern=1 3;strokeWidth=2;rounded=0;entryX=0;entryY=0.25;entryDx=0;entryDy=0;exitX=1;exitY=0.25;exitDx=0;exitDy=0;" edge="1" parent="1">
          <mxGeometry width="50" height="50" relative="1" as="geometry">
            <mxPoint x="797" y="490" as="sourcePoint" />
            <mxPoint x="203" y="490" as="targetPoint" />
          </mxGeometry>
        </mxCell>
        <mxCell id="44XMPQr_eO4UHeasSoO8-71" value="" style="endArrow=none;dashed=1;html=1;dashPattern=1 3;strokeWidth=2;rounded=0;entryX=0;entryY=0.25;entryDx=0;entryDy=0;exitX=1;exitY=0.25;exitDx=0;exitDy=0;" edge="1" parent="1">
          <mxGeometry width="50" height="50" relative="1" as="geometry">
            <mxPoint x="797" y="560" as="sourcePoint" />
            <mxPoint x="203" y="560" as="targetPoint" />
          </mxGeometry>
        </mxCell>
        <mxCell id="44XMPQr_eO4UHeasSoO8-72" value="" style="endArrow=none;dashed=1;html=1;dashPattern=1 3;strokeWidth=2;rounded=0;entryX=0;entryY=0.25;entryDx=0;entryDy=0;exitX=1;exitY=0.25;exitDx=0;exitDy=0;" edge="1" parent="1">
          <mxGeometry width="50" height="50" relative="1" as="geometry">
            <mxPoint x="800" y="344.29" as="sourcePoint" />
            <mxPoint x="206" y="344.29" as="targetPoint" />
          </mxGeometry>
        </mxCell>
        <mxCell id="44XMPQr_eO4UHeasSoO8-73" value="Add Task" style="rounded=1;whiteSpace=wrap;html=1;" vertex="1" parent="1">
          <mxGeometry x="730" y="430" width="60" height="30" as="geometry" />
        </mxCell>
        <mxCell id="44XMPQr_eO4UHeasSoO8-74" value="&lt;font style=&quot;font-size: 18px;&quot;&gt;T001&lt;/font&gt;" style="text;html=1;strokeColor=none;fillColor=none;align=center;verticalAlign=middle;whiteSpace=wrap;rounded=0;" vertex="1" parent="1">
          <mxGeometry x="195" y="247" width="130" height="30" as="geometry" />
        </mxCell>
        <mxCell id="44XMPQr_eO4UHeasSoO8-75" value="&lt;font style=&quot;font-size: 18px;&quot;&gt;T003&lt;/font&gt;" style="text;html=1;strokeColor=none;fillColor=none;align=center;verticalAlign=middle;whiteSpace=wrap;rounded=0;" vertex="1" parent="1">
          <mxGeometry x="195" y="305" width="130" height="30" as="geometry" />
        </mxCell>
        <mxCell id="44XMPQr_eO4UHeasSoO8-76" value="&lt;font style=&quot;font-size: 18px;&quot;&gt;T002&lt;/font&gt;" style="text;html=1;strokeColor=none;fillColor=none;align=center;verticalAlign=middle;whiteSpace=wrap;rounded=0;" vertex="1" parent="1">
          <mxGeometry x="195" y="275" width="130" height="30" as="geometry" />
        </mxCell>
        <mxCell id="44XMPQr_eO4UHeasSoO8-78" value="&lt;font style=&quot;font-size: 18px;&quot;&gt;T004&lt;/font&gt;" style="text;html=1;strokeColor=none;fillColor=none;align=center;verticalAlign=middle;whiteSpace=wrap;rounded=0;" vertex="1" parent="1">
          <mxGeometry x="203" y="462" width="130" height="30" as="geometry" />
        </mxCell>
        <mxCell id="44XMPQr_eO4UHeasSoO8-79" value="&lt;font style=&quot;font-size: 18px;&quot;&gt;T006&lt;/font&gt;" style="text;html=1;strokeColor=none;fillColor=none;align=center;verticalAlign=middle;whiteSpace=wrap;rounded=0;" vertex="1" parent="1">
          <mxGeometry x="203" y="520" width="130" height="30" as="geometry" />
        </mxCell>
        <mxCell id="44XMPQr_eO4UHeasSoO8-80" value="&lt;font style=&quot;font-size: 18px;&quot;&gt;T005&lt;/font&gt;" style="text;html=1;strokeColor=none;fillColor=none;align=center;verticalAlign=middle;whiteSpace=wrap;rounded=0;" vertex="1" parent="1">
          <mxGeometry x="203" y="490" width="130" height="30" as="geometry" />
        </mxCell>
        <mxCell id="44XMPQr_eO4UHeasSoO8-81" value="&lt;font style=&quot;font-size: 18px;&quot;&gt;Hello 1&lt;/font&gt;" style="text;html=1;strokeColor=none;fillColor=none;align=center;verticalAlign=middle;whiteSpace=wrap;rounded=0;" vertex="1" parent="1">
          <mxGeometry x="360" y="250" width="130" height="30" as="geometry" />
        </mxCell>
        <mxCell id="44XMPQr_eO4UHeasSoO8-82" value="&lt;font style=&quot;font-size: 18px;&quot;&gt;Hello 1&lt;/font&gt;" style="text;html=1;strokeColor=none;fillColor=none;align=center;verticalAlign=middle;whiteSpace=wrap;rounded=0;" vertex="1" parent="1">
          <mxGeometry x="360" y="280" width="130" height="30" as="geometry" />
        </mxCell>
        <mxCell id="44XMPQr_eO4UHeasSoO8-86" value="&lt;font style=&quot;font-size: 18px;&quot;&gt;Hello 1&lt;/font&gt;" style="text;html=1;strokeColor=none;fillColor=none;align=center;verticalAlign=middle;whiteSpace=wrap;rounded=0;" vertex="1" parent="1">
          <mxGeometry x="360" y="310" width="130" height="30" as="geometry" />
        </mxCell>
        <mxCell id="44XMPQr_eO4UHeasSoO8-87" value="&lt;font style=&quot;font-size: 18px;&quot;&gt;Hello 1&lt;/font&gt;" style="text;html=1;strokeColor=none;fillColor=none;align=center;verticalAlign=middle;whiteSpace=wrap;rounded=0;" vertex="1" parent="1">
          <mxGeometry x="380" y="460" width="130" height="30" as="geometry" />
        </mxCell>
        <mxCell id="44XMPQr_eO4UHeasSoO8-88" value="&lt;font style=&quot;font-size: 18px;&quot;&gt;Hello 1&lt;/font&gt;" style="text;html=1;strokeColor=none;fillColor=none;align=center;verticalAlign=middle;whiteSpace=wrap;rounded=0;" vertex="1" parent="1">
          <mxGeometry x="380" y="492" width="130" height="30" as="geometry" />
        </mxCell>
        <mxCell id="44XMPQr_eO4UHeasSoO8-89" value="&lt;font style=&quot;font-size: 18px;&quot;&gt;Hello 1&lt;/font&gt;" style="text;html=1;strokeColor=none;fillColor=none;align=center;verticalAlign=middle;whiteSpace=wrap;rounded=0;" vertex="1" parent="1">
          <mxGeometry x="380" y="530" width="130" height="30" as="geometry" />
        </mxCell>
        <mxCell id="44XMPQr_eO4UHeasSoO8-90" value="&lt;font style=&quot;font-size: 18px;&quot;&gt;Status&lt;/font&gt;" style="text;html=1;strokeColor=none;fillColor=none;align=center;verticalAlign=middle;whiteSpace=wrap;rounded=0;" vertex="1" parent="1">
          <mxGeometry x="620" y="250" width="130" height="30" as="geometry" />
        </mxCell>
        <mxCell id="44XMPQr_eO4UHeasSoO8-91" value="&lt;font style=&quot;font-size: 18px;&quot;&gt;Status&lt;/font&gt;" style="text;html=1;strokeColor=none;fillColor=none;align=center;verticalAlign=middle;whiteSpace=wrap;rounded=0;" vertex="1" parent="1">
          <mxGeometry x="620" y="275" width="130" height="30" as="geometry" />
        </mxCell>
        <mxCell id="44XMPQr_eO4UHeasSoO8-92" value="&lt;font style=&quot;font-size: 18px;&quot;&gt;Status&lt;/font&gt;" style="text;html=1;strokeColor=none;fillColor=none;align=center;verticalAlign=middle;whiteSpace=wrap;rounded=0;" vertex="1" parent="1">
          <mxGeometry x="620" y="304" width="130" height="30" as="geometry" />
        </mxCell>
        <mxCell id="44XMPQr_eO4UHeasSoO8-93" value="&lt;font style=&quot;font-size: 18px;&quot;&gt;Status&lt;/font&gt;" style="text;html=1;strokeColor=none;fillColor=none;align=center;verticalAlign=middle;whiteSpace=wrap;rounded=0;" vertex="1" parent="1">
          <mxGeometry x="620" y="460" width="130" height="30" as="geometry" />
        </mxCell>
        <mxCell id="44XMPQr_eO4UHeasSoO8-94" value="&lt;font style=&quot;font-size: 18px;&quot;&gt;Status&lt;/font&gt;" style="text;html=1;strokeColor=none;fillColor=none;align=center;verticalAlign=middle;whiteSpace=wrap;rounded=0;" vertex="1" parent="1">
          <mxGeometry x="620" y="492" width="130" height="30" as="geometry" />
        </mxCell>
        <mxCell id="44XMPQr_eO4UHeasSoO8-95" value="&lt;font style=&quot;font-size: 18px;&quot;&gt;Status&lt;/font&gt;" style="text;html=1;strokeColor=none;fillColor=none;align=center;verticalAlign=middle;whiteSpace=wrap;rounded=0;" vertex="1" parent="1">
          <mxGeometry x="620" y="530" width="130" height="30" as="geometry" />
        </mxCell>
      </root>
    </mxGraphModel>
  </diagram>
</mxfile>
